<?xml version="1.0" encoding="UTF-8" standalone="no"?>
<svg
   xmlns:dc="http://purl.org/dc/elements/1.1/"
   xmlns:cc="http://creativecommons.org/ns#"
   xmlns:rdf="http://www.w3.org/1999/02/22-rdf-syntax-ns#"
   xmlns:svg="http://www.w3.org/2000/svg"
   xmlns="http://www.w3.org/2000/svg"
   xmlns:sodipodi="http://sodipodi.sourceforge.net/DTD/sodipodi-0.dtd"
   xmlns:inkscape="http://www.inkscape.org/namespaces/inkscape"
   aria-hidden="true"
   data-prefix="fas"
   data-icon="code"
   class="svg-inline--fa fa-code fa-w-20"
   role="img"
   viewBox="0 0 640 512"
   version="1.1"
   id="svg4"
   sodipodi:docname="code-solid.svg"
   inkscape:version="0.92.3 (2405546, 2018-03-11)">
  <metadata
     id="metadata10">
    <rdf:RDF>
      <cc:Work
         rdf:about="">
        <dc:format>image/svg+xml</dc:format>
        <dc:type
           rdf:resource="http://purl.org/dc/dcmitype/StillImage" />
      </cc:Work>
    </rdf:RDF>
  </metadata>
  <defs
     id="defs8" />
  <sodipodi:namedview
     pagecolor="#ffffff"
     bordercolor="#666666"
     borderopacity="1"
     objecttolerance="10"
     gridtolerance="10"
     guidetolerance="10"
     inkscape:pageopacity="0"
     inkscape:pageshadow="2"
     inkscape:window-width="1366"
     inkscape:window-height="705"
     id="namedview6"
     showgrid="false"
     inkscape:zoom="0.65186406"
     inkscape:cx="190.61436"
     inkscape:cy="334.23186"
     inkscape:window-x="-8"
     inkscape:window-y="-8"
     inkscape:window-maximized="1"
     inkscape:current-layer="svg4" />
  <path
     style="stroke:none"
     d="M 350.17992,-2.4016155 C 299.75863,168.24211 248.58249,343.14359 206.58313,489.79625 c 30.28764,10.18336 55.26833,16.84856 83.29538,24.8301 C 341.54605,342.10499 389.977,171.41141 433.55675,21.931526 403.05966,12.517377 378.30212,5.0711071 350.17992,-2.4016155 Z M 432.40039,176.19922 523,256 l -90.59961,79.69922 59.69922,64.20117 C 542.22976,351.13981 597.84382,308.66875 644.90975,256.05954 594.62651,207.40865 543.12848,159.97735 492.09961,112.09961 Z m -284.5,-64 C 97.337218,160.62388 44.887738,207.09727 -5.216168,256 45.553305,304.21535 96.821652,351.91156 147.90039,399.80078 L 207.59961,335.69922 117,256 207.59961,176.30078 Z"
     id="path2"
     inkscape:connector-curvature="0"
     sodipodi:nodetypes="ccccccccccccccccccc" />
</svg>
