<?xml version="1.0" encoding="UTF-8" standalone="no"?>
<!-- Generator: Adobe Illustrator 16.0.0, SVG Export Plug-In . SVG Version: 6.00 Build 0)  -->

<svg
   xmlns:dc="http://purl.org/dc/elements/1.1/"
   xmlns:cc="http://creativecommons.org/ns#"
   xmlns:rdf="http://www.w3.org/1999/02/22-rdf-syntax-ns#"
   xmlns:svg="http://www.w3.org/2000/svg"
   xmlns="http://www.w3.org/2000/svg"
   xmlns:sodipodi="http://sodipodi.sourceforge.net/DTD/sodipodi-0.dtd"
   xmlns:inkscape="http://www.inkscape.org/namespaces/inkscape"
   version="1.1"
   id="Capa_1"
   x="0px"
   y="0px"
   width="459px"
   height="459px"
   viewBox="0 0 459 459"
   style="enable-background:new 0 0 459 459;"
   xml:space="preserve"
   sodipodi:docname="pdf.svg"
   inkscape:version="0.92.3 (2405546, 2018-03-11)"
   inkscape:export-filename="E:\DEVELOP learning\CV\img\pdf.png"
   inkscape:export-xdpi="300"
   inkscape:export-ydpi="300"><metadata
   id="metadata42"><rdf:RDF><cc:Work
       rdf:about=""><dc:format>image/svg+xml</dc:format><dc:type
         rdf:resource="http://purl.org/dc/dcmitype/StillImage" /></cc:Work></rdf:RDF></metadata><defs
   id="defs40" /><sodipodi:namedview
   pagecolor="#ffffff"
   bordercolor="#666666"
   borderopacity="1"
   objecttolerance="10"
   gridtolerance="10"
   guidetolerance="10"
   inkscape:pageopacity="0"
   inkscape:pageshadow="2"
   inkscape:window-width="1366"
   inkscape:window-height="705"
   id="namedview38"
   showgrid="false"
   inkscape:zoom="0.51416122"
   inkscape:cx="367.80815"
   inkscape:cy="157.11118"
   inkscape:window-x="-8"
   inkscape:window-y="-8"
   inkscape:window-maximized="1"
   inkscape:current-layer="g5" />
<g
   id="g5">
	
<path
   style="fill:#000000;stroke:#000000"
   sodipodi:nodetypes="sscccccscccscccscccccccccscccsccccccccccccccsccccsccccc"
   inkscape:connector-curvature="0"
   id="path2-0"
   d="m 599.97602,584.44628 h 5.0996 c 5.1,0 10.2008,2.55156 15.3008,5.10156 17.851,17.85 10.2,58.64883 0,91.79883 v 2.55078 c 10.2,28.05 25.4988,50.99883 40.7988,66.29883 7.65,5.1 12.7512,10.20078 22.9512,15.30078 12.75,0 22.9484,-2.55078 33.1484,-2.55078 30.6,0 51.0014,5.10156 58.6504,17.85156 2.551,5.101 2.5508,10.19883 2.5508,15.29883 -2.55,2.55 -5.1012,10.20078 -10.2012,15.30078 -5.101,2.55 -12.7492,5.09961 -22.9492,5.09961 -20.4,0 -51,-5.09961 -76.5,-17.84961 -43.35,5.1 -76.5,10.19844 -102.00002,20.39844 -2.55,0 -2.54961,7.8e-4 -5.09961,2.55078 -30.6,53.551 -56.1,79.05078 -76.5,79.05078 -5.1,0 -7.65117,2.2e-4 -10.20117,-2.55078 l -12.75,-7.65039 v -2.54883 c -2.55,-5.101 -2.54883,-7.65 -2.54883,-12.75 2.55,-12.75 17.84922,-35.69978 48.44922,-53.55078 5.1,-2.55 12.75117,-7.649 22.95117,-12.75 7.65,-12.75 15.3,-28.05139 25.5,-45.90039 12.75,-25.5 20.39884,-50.99922 28.04884,-73.94922 -10.2,-30.6 -15.29962,-48.45039 -5.0996,-84.15039 2.55,-10.2 10.2004,-20.40039 20.4004,-20.40039 z m 2.5488,10.20117 c 0,0 10e-4,2.54883 -2.5488,2.54883 -5.1,15.3 -5.1,33.15156 0,56.10156 2.55,-10.2 5.0996,-15.30117 5.0996,-22.95117 v -5.09961 c 2.55,-12.75 2.55,-22.95 0,-25.5 v -2.55078 z m 0,117.29883 c -5.1,17.85 -15.3,38.25117 -25.5,61.20117 -5.1,10.199 -10.19883,17.84883 -15.29883,28.04883 h 2.54883 2.55078 c 33.15002,-12.75 63.75042,-20.39922 84.15042,-22.94922 -5.101,-2.55 -7.6512,-5.10039 -10.2012,-7.65039 -12.75,-15.3 -28.05,-35.70039 -38.25,-58.65039 z m 102,68.85156 v 2.54883 c 17.85,7.65 35.7012,12.75 48.4512,12.75 h 5.0996 2.5508 v -2.54883 c 0,0 -2.5508,-7.8e-4 -2.5508,-2.55078 -2.55,-2.55 -12.7492,-10.19922 -48.4492,-10.19922 z m -181.04883,48.44922 c -5.1,2.55 -10.2,5.10039 -12.75,7.65039 -17.85,15.3 -30.60039,33.14783 -33.15039,40.79883 15.3,-2.55 30.60039,-17.84922 45.90039,-48.44922 z" /><g
   id="g903"><path
     style="fill:none;stroke:#008000;stroke-width:21.10000038;stroke-linecap:butt;stroke-linejoin:miter;stroke-miterlimit:4;stroke-dasharray:none;stroke-opacity:1"
     d="M 404.59371,523.23361 V 962.68166 H 844.04174 V 655.66258 l -139.58917,-0.40374 1.05723,-132.02523 z"
     id="path889"
     inkscape:connector-curvature="0"
     sodipodi:nodetypes="ccccccc" /><path
     inkscape:connector-curvature="0"
     id="path899"
     d="M 708.83339,520.27033 847.2441,652.80058"
     style="fill:#00ff00;stroke:#008000;stroke-width:21.09882736;stroke-linecap:butt;stroke-linejoin:miter;stroke-miterlimit:4;stroke-dasharray:none;stroke-opacity:1" /></g><path
   style="fill:#000000;stroke:none"
   sodipodi:nodetypes="sscccccscccscccscccccccccscccsccccccccccccccsccccsccccc"
   inkscape:connector-curvature="0"
   id="path2-0-7"
   d="m 217.42021,86.358417 h 5.0996 c 5.1,0 10.2008,2.55156 15.3008,5.10156 17.851,17.850003 10.2,58.648833 0,91.798833 v 2.55078 c 10.2,28.05 25.4988,50.99883 40.7988,66.29883 7.65,5.1 12.7512,10.20078 22.9512,15.30078 12.75,0 22.9484,-2.55078 33.1484,-2.55078 30.6,0 51.0014,5.10156 58.6504,17.85156 2.551,5.101 2.5508,10.19883 2.5508,15.29883 -2.55,2.55 -5.1012,10.20078 -10.2012,15.30078 -5.101,2.55 -12.7492,5.09961 -22.9492,5.09961 -20.4,0 -51,-5.09961 -76.5,-17.84961 -43.35,5.1 -76.5,10.19844 -102.00002,20.39844 -2.55,0 -2.54961,7.8e-4 -5.09961,2.55078 -30.6,53.551 -56.1,79.05078 -76.5,79.05078 -5.100002,0 -7.651172,2.2e-4 -10.201172,-2.55078 l -12.75,-7.65039 v -2.54883 c -2.55,-5.101 -2.54883,-7.65 -2.54883,-12.75 2.55,-12.75 17.84922,-35.69978 48.449222,-53.55078 5.1,-2.55 12.75117,-7.649 22.95117,-12.75 7.65,-12.75 15.3,-28.05139 25.5,-45.90039 12.75,-25.5 20.39884,-50.99922 28.04884,-73.94922 -10.2,-30.6 -15.29962,-48.45039 -5.0996,-84.15039 2.55,-10.200003 10.2004,-20.400393 20.4004,-20.400393 z m 2.5488,10.20117 c 0,0 0.001,2.54883 -2.5488,2.54883 -5.1,15.300003 -5.1,33.151563 0,56.101563 2.55,-10.2 5.0996,-15.30117 5.0996,-22.95117 v -5.09961 c 2.55,-12.75 2.55,-22.95 0,-25.5 v -2.550783 z m 0,117.298833 c -5.1,17.85 -15.3,38.25117 -25.5,61.20117 -5.1,10.199 -10.19883,17.84883 -15.29883,28.04883 h 2.54883 2.55078 c 33.15002,-12.75 63.75042,-20.39922 84.15042,-22.94922 -5.101,-2.55 -7.6512,-5.10039 -10.2012,-7.65039 -12.75,-15.3 -28.05,-35.70039 -38.25,-58.65039 z m 102,68.85156 v 2.54883 c 17.85,7.65 35.7012,12.75 48.4512,12.75 h 5.0996 2.5508 v -2.54883 c 0,0 -2.5508,-7.8e-4 -2.5508,-2.55078 -2.55,-2.55 -12.7492,-10.19922 -48.4492,-10.19922 z M 140.92018,331.1592 c -5.1,2.55 -10.2,5.10039 -12.75,7.65039 -17.85,15.3 -30.600392,33.14783 -33.150392,40.79883 15.300002,-2.55 30.600392,-17.84922 45.900392,-48.44922 z" /></g>
<g
   id="g7">
</g>
<g
   id="g9">
</g>
<g
   id="g11">
</g>
<g
   id="g13">
</g>
<g
   id="g15">
</g>
<g
   id="g17">
</g>
<g
   id="g19">
</g>
<g
   id="g21">
</g>
<g
   id="g23">
</g>
<g
   id="g25">
</g>
<g
   id="g27">
</g>
<g
   id="g29">
</g>
<g
   id="g31">
</g>
<g
   id="g33">
</g>
<g
   id="g35">
</g>
</svg>