<?xml version="1.0" encoding="UTF-8" standalone="no"?>
<svg
   xmlns:dc="http://purl.org/dc/elements/1.1/"
   xmlns:cc="http://creativecommons.org/ns#"
   xmlns:rdf="http://www.w3.org/1999/02/22-rdf-syntax-ns#"
   xmlns:svg="http://www.w3.org/2000/svg"
   xmlns="http://www.w3.org/2000/svg"
   xmlns:sodipodi="http://sodipodi.sourceforge.net/DTD/sodipodi-0.dtd"
   xmlns:inkscape="http://www.inkscape.org/namespaces/inkscape"
   aria-hidden="true"
   data-prefix="fas"
   data-icon="users"
   class="svg-inline--fa fa-users fa-w-20"
   role="img"
   viewBox="0 0 640 512"
   version="1.1"
   id="svg4"
   sodipodi:docname="users-solid.svg"
   inkscape:version="0.92.3 (2405546, 2018-03-11)">
  <metadata
     id="metadata10">
    <rdf:RDF>
      <cc:Work
         rdf:about="">
        <dc:format>image/svg+xml</dc:format>
        <dc:type
           rdf:resource="http://purl.org/dc/dcmitype/StillImage" />
      </cc:Work>
    </rdf:RDF>
  </metadata>
  <defs
     id="defs8" />
  <sodipodi:namedview
     pagecolor="#ffffff"
     bordercolor="#666666"
     borderopacity="1"
     objecttolerance="10"
     gridtolerance="10"
     guidetolerance="10"
     inkscape:pageopacity="0"
     inkscape:pageshadow="2"
     inkscape:window-width="1366"
     inkscape:window-height="705"
     id="namedview6"
     showgrid="false"
     inkscape:zoom="0.4609375"
     inkscape:cx="82.037262"
     inkscape:cy="167.44186"
     inkscape:window-x="-8"
     inkscape:window-y="-8"
     inkscape:window-maximized="1"
     inkscape:current-layer="svg4" />
  <path
     d="m 320,32 c -61.9,0 -112,50.1 -112,112 0,61.9 50.1,112 112,112 61.9,0 112,-50.1 112,-112 C 432,82.1 381.9,32 320,32 Z M 96,96 c -35.3,0 -64,28.7 -64,64 0,35.3 28.7,64 64,64 35.3,0 64,-28.7 64,-64 0,-35.3 -28.7,-64 -64,-64 z m 448,0 c -35.3,0 -64,28.7 -64,64 0,35.3 28.7,64 64,64 35.3,0 64,-28.7 64,-64 0,-35.3 -28.7,-64 -64,-64 z M 64,256 C 28.7,256 0,284.7 0,320 v 63.72881 C 32.632104,384.12614 65.266647,384 97.900391,384 104.20039,336.6 132.79961,296.69961 173.09961,274.59961 161.49961,263.09961 145.6,256 128,256 Z m 448,0 c -17.6,0 -33.49961,7.09961 -45.09961,18.59961 C 507.20039,296.69961 535.8,336.6 542,384 c 32.66667,0 65.33333,0 98,0 v -64 c 0,-35.3 -28.7,-64 -64,-64 z M 243.19922,288 C 179.59922,288 128,339.59922 128,403.19922 L 128.27119,480 H 512 V 403.19922 C 512,339.59922 460.40078,288 396.80078,288 H 388.5 c -20.8,10 -43.9,16 -68.5,16 -24.6,0 -47.6,-6 -68.5,-16 z"
     id="path2"
     inkscape:connector-curvature="0"
     sodipodi:nodetypes="ssssssssssssssssscccssscccsssssccsscscs" />
</svg>
